<svg width="30" height="31" viewBox="0 0 30 31" fill="none" xmlns="http://www.w3.org/2000/svg">
<path d="M26.8871 15.168C26.8871 15.4731 26.7528 15.7539 26.5087 15.9859L18.4032 24.0913C18.1468 24.3233 17.8905 24.4209 17.6097 24.4209C16.9994 24.4209 16.5355 23.9815 16.5355 23.3711C16.5355 23.0904 16.6454 22.7974 16.8407 22.602L19.5629 19.8189L23.6888 16.0713L20.7225 16.2666H5.29287C4.65812 16.2666 4.21862 15.8028 4.21862 15.168C4.21862 14.5333 4.65812 14.0815 5.29287 14.0815H20.7225L23.6766 14.2646L19.5629 10.5171L16.8407 7.7461C16.6331 7.53858 16.5355 7.25781 16.5355 6.96485C16.5355 6.3667 16.9994 5.91504 17.6097 5.91504C17.8905 5.91504 18.159 6.0249 18.4276 6.28125L26.5087 14.3501C26.7528 14.5943 26.8871 14.875 26.8871 15.168Z" fill="white"/>
</svg>
