<svg width="160" height="56" viewBox="0 0 160 56" fill="none" xmlns="http://www.w3.org/2000/svg">
<path d="M85.5987 15.1921C86.4258 14.2681 87.0479 13.936 87.9253 13.936C88.8026 13.936 89.2557 14.2861 89.4894 15.2823C90.41 14.3042 91.1183 13.936 91.9993 13.936C93.1824 13.936 93.79 14.8276 93.5599 16.2064C93.506 16.5384 93.3729 17.0798 93.1716 17.8667L92.0712 21.9742H89.8167L90.8271 18.1663C90.9098 17.8342 90.9925 17.5021 91.0177 17.3469C91.1255 16.7008 90.9134 16.3327 90.4315 16.3327C90.018 16.3327 89.6297 16.5962 89.3672 17.0329C89.2341 17.2603 89.1011 17.6429 88.9429 18.2565L87.9612 21.9778H85.6922L86.771 17.9064C86.8609 17.5382 86.8932 17.4155 86.922 17.2423C87.0155 16.6828 86.7998 16.3327 86.3323 16.3327C85.6707 16.3327 85.214 16.9282 84.8688 18.2529L83.8871 21.9742H81.6182L83.6822 14.1634H85.9511L85.5987 15.1957V15.1921Z" fill="white"/>
<path d="M100.306 21.9706H98.0367L98.3459 21.1152C97.5225 21.9201 96.9148 22.198 96.0734 22.198C94.52 22.198 93.7577 20.747 94.1316 18.5128C94.5739 15.8743 96.2747 13.936 98.1446 13.936C98.9968 13.936 99.4067 14.1995 99.9533 15.055L100.101 14.1634H102.37L100.306 21.9742V21.9706ZM96.4761 18.3034C96.3107 19.2996 96.6847 19.9277 97.4434 19.9277C98.256 19.9277 99.022 19.0361 99.2197 17.8486C99.3923 16.8163 99.0399 16.2064 98.2848 16.2064C97.4614 16.2064 96.6775 17.0979 96.4761 18.3034Z" fill="white"/>
<path d="M108.68 21.3928C108.227 23.1036 107.839 24.1179 107.372 24.782C106.606 25.9009 105.559 26.4063 104.02 26.4063C102.906 26.4063 102.161 26.0922 101.701 25.4642C101.313 24.9047 101.208 24.2947 101.291 23.0712H103.452C103.42 23.7533 103.769 24.1359 104.43 24.1359C105.297 24.1359 105.8 23.5945 106.131 22.3529L106.455 21.1473C105.664 21.9342 105.178 22.1941 104.466 22.1941C103.711 22.1941 103.006 21.7934 102.65 21.1293C102.291 20.4832 102.208 19.5051 102.406 18.3176C102.834 15.7477 104.419 13.9321 106.232 13.9321C107.113 13.9321 107.627 14.3003 108.098 15.2784L108.328 14.1595H110.583L108.684 21.3928H108.68ZM104.732 18.1948C104.556 19.2416 104.937 19.9238 105.681 19.9238C106.465 19.9238 107.141 19.0864 107.343 17.8808C107.519 16.8341 107.17 16.2024 106.411 16.2024C105.653 16.2024 104.923 17.0398 104.729 18.1948H104.732Z" fill="white"/>
<path d="M116.735 21.9706H114.466L114.775 21.1152C113.952 21.9201 113.344 22.198 112.503 22.198C110.949 22.198 110.187 20.747 110.561 18.5128C111.003 15.8743 112.7 13.936 114.57 13.936C115.423 13.936 115.832 14.1995 116.379 15.055L116.526 14.1634H118.795L116.731 21.9742L116.735 21.9706ZM112.905 18.3034C112.74 19.2996 113.114 19.9277 113.873 19.9277C114.685 19.9277 115.451 19.0361 115.649 17.8486C115.822 16.8163 115.469 16.2064 114.714 16.2064C113.887 16.2064 113.107 17.0979 112.905 18.3034Z" fill="white"/>
<path d="M124.463 21.9704H117.641L122.373 16.3795H119.691L120.349 14.1597H126.839L122.15 19.7506H125.121L124.463 21.9704Z" fill="white"/>
<path d="M127.954 21.9704H125.685L127.749 14.1597H130.018L127.958 21.9704H127.954ZM131.018 11.2072C130.856 12.1673 130.137 12.9361 129.396 12.9361C128.655 12.9361 128.163 12.1673 128.324 11.2072C128.479 10.2795 129.227 9.51074 129.982 9.51074C130.737 9.51074 131.176 10.2615 131.018 11.2072Z" fill="white"/>
<path d="M133.384 15.1738C134.38 14.2317 134.98 13.9321 135.818 13.9321C137.069 13.9321 137.612 14.7876 137.361 16.3071C137.307 16.6392 137.192 17.1445 137.08 17.5632L135.919 21.9667H133.65L134.57 18.5233C134.693 18.0324 134.743 17.8231 134.786 17.5632C134.919 16.7583 134.703 16.3216 134.168 16.3216C133.837 16.3216 133.474 16.5129 133.243 16.8269C133.013 17.1409 132.848 17.5451 132.618 18.4331L131.683 21.9631H129.414L131.478 14.1523H133.747L133.387 15.1665L133.384 15.1738Z" fill="white"/>
<path d="M143.136 21.9704H140.881L142.352 16.3794H141.402L141.992 14.1596H142.941L143.434 12.29C143.808 10.8751 144.355 10.0016 145.185 9.46018C145.631 9.18225 146.124 9.02344 146.634 9.02344C147.145 9.02344 147.512 9.12811 148.004 9.3916L147.357 11.8532C147.131 11.5753 146.94 11.4706 146.667 11.4706C146.145 11.4706 145.818 11.8532 145.566 12.7808L145.21 14.1596H146.749L146.16 16.3794H144.621L143.136 21.9704Z" fill="white"/>
<path d="M152.895 18.285C152.478 19.8767 152.078 20.6961 151.489 21.2555C150.838 21.8655 149.831 22.1976 148.706 22.1976C146.753 22.1976 145.825 21.0787 146.149 19.1404C146.196 18.8625 146.289 18.4582 146.386 18.0576L147.422 14.163H149.691L148.709 17.8843C148.58 18.3391 148.483 18.7398 148.465 18.8445C148.364 19.4544 148.648 19.8046 149.252 19.8046C149.939 19.8046 150.345 19.3498 150.629 18.2309L151.708 14.1594H153.977L152.888 18.2814L152.895 18.285ZM151.205 11.2105C151.082 11.9433 150.514 12.5388 149.939 12.5388C149.364 12.5388 148.964 11.9433 149.09 11.1925C149.216 10.4417 149.784 9.84619 150.374 9.84619C150.964 9.84619 151.331 10.4562 151.205 11.2105ZM153.869 11.2286C153.754 11.9288 153.168 12.5388 152.618 12.5388C152.014 12.5388 151.633 11.9288 151.758 11.1745C151.881 10.4417 152.463 9.84619 153.053 9.84619C153.643 9.84619 153.995 10.4742 153.869 11.225V11.2286Z" fill="white"/>
<path d="M157.336 15.2244C158.173 14.4015 158.695 14.1597 159.561 14.1597C159.658 14.1597 159.809 14.1597 160 14.1777L159.306 16.8523C158.99 16.6068 158.731 16.5022 158.332 16.5022C157.821 16.5022 157.386 16.7296 157.08 17.1663C156.861 17.4984 156.721 17.8304 156.501 18.6498L155.627 21.9704H153.359L155.423 14.1597H157.692L157.336 15.2244Z" fill="white"/>
<path d="M84.297 33.8055C83.9554 33.3002 83.6426 33.1053 83.1607 33.1053C82.3229 33.1053 81.5606 33.9607 81.3592 35.1482C81.1866 36.1805 81.575 36.8266 82.3445 36.8266C82.7724 36.8266 83.0996 36.6678 83.6533 36.231L83.0097 38.6782C82.1719 39.0103 81.841 39.0969 81.3304 39.0969C79.6116 39.0969 78.6551 37.4907 79.0399 35.2023C79.4642 32.6685 81.201 30.835 83.1679 30.835C83.8403 30.835 84.4049 31.0082 84.9335 31.3764L84.2934 33.8055H84.297Z" fill="white"/>
<path d="M92.0209 34.8885C91.8483 35.9208 91.3628 36.9314 90.6832 37.7003C89.8346 38.6604 88.8961 39.0971 87.6699 39.0971C85.498 39.0971 84.2898 37.4368 84.6998 34.9896C85.1061 32.5605 86.9507 30.8315 89.137 30.8315C91.3233 30.8315 92.4344 32.4052 92.0209 34.8849V34.8885ZM86.9759 35.2025C86.8105 36.1987 87.1845 36.8268 87.9432 36.8268C88.7702 36.8268 89.5361 35.9352 89.7339 34.7478C89.9065 33.7155 89.5541 33.1055 88.799 33.1055C87.9612 33.1055 87.1773 33.997 86.9759 35.2025Z" fill="white"/>
<path d="M96.0878 32.091C96.9184 31.1634 97.5369 30.835 98.4179 30.835C99.2988 30.835 99.7483 31.1851 99.9785 32.1813C100.899 31.2031 101.607 30.835 102.488 30.835C103.671 30.835 104.279 31.7265 104.049 33.1053C103.995 33.4373 103.862 33.9788 103.661 34.7656L102.56 38.8731H100.306L101.313 35.0652C101.395 34.7331 101.478 34.4011 101.507 34.2459C101.615 33.5998 101.402 33.2316 100.921 33.2316C100.507 33.2316 100.122 33.4951 99.8562 33.9318C99.7231 34.1592 99.5901 34.5418 99.4319 35.1554L98.4502 38.8767H96.1813L97.26 34.8053C97.3499 34.4408 97.3823 34.318 97.411 34.1412C97.5045 33.5817 97.2888 33.2316 96.8213 33.2316C96.1597 33.2316 95.703 33.8236 95.3578 35.1518L94.3761 38.8731H92.1072L94.1712 31.0624H96.4402L96.0878 32.0946V32.091Z" fill="white"/>
<path d="M108.033 32.0405C108.982 31.149 109.583 30.835 110.381 30.835C111.935 30.835 112.668 32.2859 112.283 34.5924C111.83 37.2994 110.36 39.1005 108.601 39.1005C107.681 39.1005 107.073 38.6313 106.649 37.5449L105.167 43.19H102.898L106.095 31.066H108.364L108.037 32.0441L108.033 32.0405ZM107.202 35.2023C107.037 36.1985 107.411 36.8266 108.166 36.8266C108.979 36.8266 109.745 35.9351 109.942 34.7476C110.115 33.7153 109.763 33.1053 109.008 33.1053C108.18 33.1053 107.4 33.9968 107.199 35.2023H107.202Z" fill="white"/>
<path d="M119.856 35.1844C119.425 36.7726 119.04 37.5955 118.439 38.155C117.799 38.765 116.796 39.097 115.671 39.097C113.718 39.097 112.79 37.9781 113.114 36.0399C113.161 35.762 113.254 35.3577 113.351 34.9571L114.387 31.0625H116.656L115.663 34.7838C115.573 35.152 115.484 35.5346 115.455 35.6934C115.343 36.3575 115.602 36.7076 116.206 36.7076C116.908 36.7076 117.296 36.2709 117.598 35.1339L118.677 31.0625H120.946L119.856 35.1844Z" fill="white"/>
<path d="M122.88 38.8695H120.611L122.096 33.2785H121.122L121.712 31.0587H122.675L123.341 28.561H125.595L124.944 31.0587H126.156L125.566 33.2785H124.355L122.884 38.8695H122.88Z" fill="white"/>
<path d="M127.465 35.5525C127.368 36.148 127.375 36.4259 127.497 36.6714C127.648 36.9168 127.94 37.072 128.285 37.072C128.781 37.072 129.112 36.8085 129.284 36.2671H131.762C131.356 37.1406 131.061 37.5773 130.615 38.0321C129.896 38.7324 128.964 39.0969 127.907 39.0969C125.915 39.0969 124.955 37.664 125.354 35.289C125.552 34.1015 126.106 32.9284 126.846 32.1271C127.634 31.2717 128.616 30.835 129.73 30.835C131.697 30.835 132.628 32.3365 132.211 34.8342C132.19 34.9569 132.132 35.2348 132.064 35.5525H127.468H127.465ZM130.032 33.9282C130.122 33.1414 129.835 32.7227 129.23 32.7227C128.626 32.7227 128.159 33.1233 127.889 33.9282H130.036H130.032Z" fill="white"/>
<path d="M136.217 32.127C137.055 31.3076 137.58 31.0622 138.443 31.0622C138.54 31.0622 138.691 31.0622 138.882 31.0802L138.188 33.7512C137.871 33.5058 137.612 33.4011 137.213 33.4011C136.703 33.4011 136.268 33.6285 135.962 34.0652C135.743 34.3973 135.602 34.7294 135.383 35.5487L134.513 38.8694H132.244L134.304 31.0586H136.573L136.217 32.1234V32.127Z" fill="white"/>
<path d="M79.0363 55.7728H76.7673L78.2524 50.1819H77.2779L77.8677 47.9621H78.8313L79.4966 45.4644H81.7512L81.1003 47.9621H82.3121L81.7224 50.1819H80.5106L79.0399 55.7728H79.0363Z" fill="white"/>
<path d="M83.7721 52.4524C83.6714 53.0479 83.6822 53.3258 83.8044 53.5713C83.9554 53.8167 84.2467 53.9719 84.5883 53.9719C85.0845 53.9719 85.4154 53.7084 85.588 53.167H88.0619C87.6556 54.0405 87.3607 54.4772 86.9148 54.932C86.1921 55.6323 85.2643 55.9968 84.2072 55.9968C82.2115 55.9968 81.255 54.5639 81.6541 52.1889C81.8519 51.0014 82.4056 49.8283 83.1464 49.027C83.9339 48.1716 84.9155 47.7349 86.0302 47.7349C87.9972 47.7349 88.9285 49.2364 88.5114 51.7341C88.4898 51.8568 88.4323 52.1347 88.3639 52.4524H83.7721ZM86.3395 50.8281C86.4294 50.0413 86.1417 49.6226 85.5376 49.6226C84.9335 49.6226 84.4661 50.0232 84.1964 50.8281H86.3431H86.3395Z" fill="white"/>
<path d="M94.4445 50.7049C94.1029 50.1996 93.79 50.0047 93.3082 50.0047C92.4703 50.0047 91.708 50.8601 91.5067 52.0476C91.3341 53.0799 91.7224 53.726 92.4919 53.726C92.9198 53.726 93.247 53.5672 93.8008 53.1304L93.1572 55.5776C92.3193 55.9097 91.9885 55.9963 91.4779 55.9963C89.7591 55.9963 88.8026 54.3901 89.1874 52.1018C89.6117 49.568 91.3485 47.7344 93.3154 47.7344C93.9878 47.7344 94.5523 47.9076 95.0809 48.2758L94.4409 50.7049H94.4445Z" fill="white"/>
<path d="M98.4898 48.662C99.3744 47.9799 99.9389 47.738 100.665 47.738C101.956 47.738 102.496 48.7162 102.201 50.4812C102.158 50.7447 102.021 51.3186 101.899 51.7914L100.849 55.7762H98.5797L99.4067 52.6504C99.6153 51.8997 99.6656 51.6723 99.716 51.3763C99.8598 50.5209 99.662 50.1347 99.0975 50.1347C98.6984 50.1347 98.3172 50.3621 98.0691 50.7627C97.9001 51.0406 97.7778 51.3547 97.5873 52.0729L96.6092 55.7762H94.3402L97.7095 43.0386H99.9785L98.4862 48.6656L98.4898 48.662Z" fill="white"/>
<path d="M106.257 48.976C107.253 48.034 107.853 47.7344 108.691 47.7344C109.943 47.7344 110.485 48.5898 110.234 50.1094C110.18 50.4414 110.065 50.9468 109.953 51.3691L108.792 55.7725H106.523L107.443 52.3292C107.566 51.8419 107.616 51.6289 107.659 51.3691C107.792 50.5642 107.576 50.1274 107.041 50.1274C106.71 50.1274 106.347 50.3187 106.117 50.6327C105.886 50.9467 105.721 51.3474 105.491 52.2389L104.556 55.7689H102.287L104.351 47.9582H106.62L106.257 48.9724V48.976Z" fill="white"/>
<path d="M112.506 55.7727H110.237L112.301 47.9619H114.57L112.506 55.7727ZM115.57 45.0094C115.408 45.9695 114.689 46.7383 113.948 46.7383C113.208 46.7383 112.715 45.9695 112.877 45.0094C113.031 44.0818 113.779 43.313 114.534 43.313C115.29 43.313 115.728 44.0637 115.57 45.0094Z" fill="white"/>
<path d="M117.537 50.7592L119.971 47.9619H122.834L119.554 51.5244L121.719 55.769H118.954L118.263 54.4588C117.846 53.672 117.555 53.0259 117.188 52.0983L116.217 55.7654H113.948L117.318 43.0278H119.586L117.537 50.752V50.7592Z" fill="white"/>
<path d="M34.3545 27.7022H40.8162L47.598 0H34.7573L31.7799 12.1493H38.1625L34.3545 27.7022Z" fill="white"/>
<path d="M57.7059 27.7022H71.7368L75.0809 14.037H61.0644L64.4984 0H49.3995L42.643 27.5976L41.9202 30.5176C40.7983 35.6502 40.2661 38.6207 40.2661 40.4795C40.2661 48.9905 46.5372 55.8953 56.5408 55.7943H67.9576L71.6757 40.6059H60.7192C60.7192 40.6059 59.2737 40.5878 58.4574 40.2269C57.5944 39.8443 57.1162 39.4797 56.5696 38.7073C56.1093 38.054 55.9403 37.592 55.8073 36.8052C55.6347 35.7765 56.1201 34.1486 56.1201 34.1486L57.6987 27.7022H57.7059Z" fill="white"/>
<path d="M15.2679 35.2352C15.2679 31.6908 19.2269 27.7132 23.0421 27.7024H32.5566L35.9044 14.0371H26.0805C11.3448 14.0155 0 28.3737 0 40.4291C0 48.9401 6.2064 56.0218 16.228 55.7944H31.8123L35.5304 40.606H19.5613C16.2675 40.588 15.2679 37.2565 15.2679 35.2352Z" fill="white"/>
</svg>
